<?xml version="1.0" encoding="utf-8"?>
<!-- Generator: Adobe Illustrator 21.1.0, SVG Export Plug-In . SVG Version: 6.00 Build 0)  -->
<svg version="1.1" id="Capa_1" focusable="false" xmlns="http://www.w3.org/2000/svg" xmlns:xlink="http://www.w3.org/1999/xlink"
	 x="0px" y="0px" viewBox="0 0 5 5" style="enable-background:new 0 0 5 5;" xml:space="preserve">
<style type="text/css">
	.st0{fill-rule:evenodd;clip-rule:evenodd;fill:#20211F;}
	.st1{fill-rule:evenodd;clip-rule:evenodd;fill:#FFFFFF;}
	.st2{fill-rule:evenodd;clip-rule:evenodd;fill:#B32A2C;}
</style>
<g>
	<path class="st0" d="M2.5,5C3.9,5,5,3.9,5,2.5C5,1.1,3.9,0,2.5,0C1.1,0,0,1.1,0,2.5C0,3.9,1.1,5,2.5,5"/>
	<path class="st1" d="M2.5,4.9c1.3,0,2.4-1.1,2.4-2.4c0-1.3-1.1-2.4-2.4-2.4c-1.3,0-2.4,1.1-2.4,2.4C0.1,3.8,1.2,4.9,2.5,4.9"/>
	<path class="st2" d="M2.5,4.8c1.3,0,2.3-1,2.3-2.3s-1-2.3-2.3-2.3c-1.3,0-2.3,1-2.3,2.3S1.2,4.8,2.5,4.8"/>
	<path class="st1" d="M3.4,1.8C3.9,1.9,3.7,2.9,3,3.1C3,3,3,2.9,3,2.8C3.3,2.8,3.7,2.1,3.4,1.8 M1.8,4.4c1,0.4,2.2-0.1,2.5-1.2
		c0,0-0.1,0.1-0.2,0.2c-1.7,1.3-3-1.1-0.9-1.6C2.6,1.7,1.8,2.2,1.8,3.1C1.6,2,2.7,1.2,3.8,1.7C3.6,1.5,2.4,1,1.8,2
		c0.1-0.5,1.1-1.4,2.2-0.6c-0.1-0.1-1-0.9-2-0.1c0.8-0.9,2-0.5,2.4,0.1C3.3,0,1.6,0.4,1,1.4C0.4,2.3,0.5,3.7,1.8,4.4"/>
</g>
</svg>
